<mxfile host="app.diagrams.net" modified="2023-08-25T10:11:55.464Z" agent="Mozilla/5.0 (Macintosh; Intel Mac OS X 10_15_7) AppleWebKit/605.1.15 (KHTML, like Gecko) Version/16.3 Safari/605.1.15" version="21.6.9" etag="zyIeSwB9FUfiW_XYzJi-" type="github">
  <diagram name="Страница — 1" id="g0JbZJ1bZGrp6nuZRJDn">
    <mxGraphModel>
      <root>
        <mxCell id="0" />
        <mxCell id="1" parent="0" />
      </root>
    </mxGraphModel>
  </diagram>
</mxfile>
